<?xml version="1.0" encoding="UTF-8"?>
<svg xmlns="http://www.w3.org/2000/svg" xmlns:xlink="http://www.w3.org/1999/xlink" width="58px" height="50px" viewBox="0 0 58 50" version="1.1">

<g style="fill:white;stroke:black;stroke-linecap:round;stroke-linejoin:miter;stroke-miterlimit:4">

  <!-- Outline of envelope -->
  <path stroke-width="1.0"
	d="M 0.929688 11.5
	   L 19.0781  11.5
	   C 19.3125  11.5 19.5 11.6866 19.5 11.921
	   L 19.5  23.0781
	   C 19.5  23.3125 19.3125 23.5 19.0781 23.5
	   L 0.933594 23.5
	   C 0.699219 23.5 0.503906 23.3125 0.503906 23.0781
	   L 0.5      12.293
	   C 0.5      11.6866 0.695313 11.5 0.929688 11.5 Z" />

  <!-- Details of envelope -->
  <path stroke-width="0.330924"
	d="M 0.773438 23.25
	   L 7.94141  16.6836"/>

  <path stroke-width="0.330924"
	d="M 11.6719 16.5234
	   L 19.0742 23.0117"/>

  <path stroke-width="0.882464"
	d="M 1.16487 11.8819
	   L 9.75781 17.0968"/>

  <path stroke-width="0.882464"
	d="M 9.93359 17.0968
	   L 18.8359 11.8819"/>

  <!-- Scales -->
  <path style="stroke:none;fill-rule:nonzero;fill:black;"
	d="M 55.414062 33.21875 L 47.972656 11.0625 L 49.167969
	   11.300781 C 49.070312 11.71875 49.324219 12.140625
	   49.742188 12.242188 C 50.160156 12.347656 50.589844
	   12.089844 50.691406 11.667969 C 50.796875 11.246094
	   50.539062 10.828125 50.117188 10.71875 C 49.753906
	   10.628906 49.386719 10.8125 49.226562 11.132812 L 39.132812
	   8.15625 L 29.695312 5.371094 L 29.605469 3.757812 C
	   30.609375 3.726562 31.421875 2.898438 31.421875 1.878906 C
	   31.421875 0.84375 30.578125 0 29.535156 0 C 28.5 0 27.65625
	   0.84375 27.65625 1.878906 C 27.65625 2.800781 28.316406
	   3.566406 29.183594 3.730469 L 29.101562 5.242188 L
	   19.746094 3.355469 L 9.234375 1.246094 C 9.25 0.882812
	   9.007812 0.546875 8.640625 0.457031 C 8.222656 0.347656
	   7.796875 0.605469 7.6875 1.027344 C 7.585938 1.449219
	   7.84375 1.875 8.265625 1.976562 C 8.683594 2.078125
	   9.109375 1.828125 9.214844 1.40625 L 10.238281 1.707031 L
	   2.851562 23.78125 L 0.09375 23.78125 C 0.09375 23.78125
	   1.703125 27.3125 10.175781 27.3125 C 18.652344 27.3125
	   19.6875 23.78125 19.6875 23.78125 L 17.875 23.78125 L
	   10.488281 1.78125 L 19.480469 4.433594 L 28.992188 7.238281
	   L 26.949219 44.53125 C 26.949219 44.53125 27.03125
	   46.210938 24.386719 46.613281 C 21.742188 47.015625 18.375
	   47.175781 16.773438 48.058594 C 15.167969 48.941406
	   14.925781 49.980469 14.925781 49.980469 L 28.871094
	   49.980469 L 29.914062 49.980469 L 43.859375 49.980469 C
	   43.859375 49.980469 43.617188 48.941406 42.015625 48.058594
	   C 40.410156 47.175781 37.050781 47.015625 34.402344
	   46.613281 C 31.757812 46.210938 31.835938 44.53125
	   31.835938 44.53125 L 29.808594 7.40625 L 38.867188 9.226562
	   L 47.808594 11.03125 L 40.386719 33.21875 L 38.367188
	   33.21875 C 38.367188 33.21875 39.976562 36.746094 48.445312
	   36.746094 C 56.925781 36.746094 57.964844 33.21875
	   57.964844 33.21875 L 55.414062 33.21875 Z M 17.269531
	   23.78125 L 3.457031 23.78125 L 10.351562 3.171875 L
	   17.269531 23.78125 Z M 40.992188 33.21875 L 47.886719
	   12.609375 L 54.800781 33.21875 L 40.992188 33.21875 Z M
	   40.992188 33.21875 "/>
</g>

</svg>
